<svg width="1242" height="591" viewBox="0 0 1242 591" fill="none" xmlns="http://www.w3.org/2000/svg">
<path d="M24.4 363.34H10.5792V484.573H24.4C57.5833 484.573 74.4667 464.573 75.05 424.569C74.4667 383.748 57.5833 363.34 24.4 363.34ZM29.3875 494.981H0V353.106H29.3875C66.7667 354.794 85.7458 378.619 86.3292 424.569C85.7458 469.706 66.7667 493.177 29.3875 494.981Z" fill="#FABCB5"/>
<path d="M100.742 494.982H90.2457V387.836H100.742V392.295C103.017 389.966 106.837 388.153 112.204 386.87C114.129 386.461 116.25 386.257 118.587 386.257C122.55 386.257 127.071 386.928 132.142 388.27L127.858 396.928C124.767 396.057 121.937 395.616 119.375 395.616C116.05 395.616 113.075 396.316 110.454 397.716C106.137 399.641 102.9 405.236 100.742 414.511V494.982Z" fill="#FABCB5"/>
<path d="M136.847 456.233C137.96 474.487 147.314 483.616 164.931 483.616H190.643V453.345C187.726 436.204 178.251 427.633 162.214 427.633C145.247 428.099 136.76 436.579 136.76 453.087C136.76 454.133 136.789 455.187 136.847 456.233ZM200.964 494.983H165.889C140.406 494.983 127.256 482.329 126.439 457.02V454.574C126.439 430.374 138.306 418.27 162.043 418.27C175.276 418.27 184.843 421.858 190.731 429.033L190.643 421.945C188.426 404.333 179.039 395.295 162.476 394.829C157.343 394.887 152.943 396.17 149.268 398.674L140.789 392.029C146.497 387.712 153.756 385.524 162.564 385.47C184.785 385.995 197.581 397.37 200.964 419.583V494.983Z" fill="#FABCB5"/>
<path d="M218.695 479.847C220.412 481.61 221.27 483.702 221.27 486.127C221.27 488.597 220.412 490.693 218.695 492.406C216.979 494.127 214.866 494.981 212.354 494.981C209.883 494.981 207.787 494.127 206.075 492.406C204.354 490.693 203.5 488.597 203.5 486.127C203.5 483.702 204.354 481.61 206.075 479.847C207.787 478.089 209.883 477.21 212.354 477.21C214.866 477.21 216.979 478.089 218.695 479.847Z" fill="#FABCB5"/>
<path d="M305.081 432.791H345.143L325.114 367.366L305.081 432.791ZM302.022 442.854L286.101 494.983H275.518L318.989 353.108H331.235L374.71 494.983H364.21L348.206 442.854H302.022Z" fill="#FABCB5"/>
<path d="M389.035 494.982H378.627V387.741H389.21V397.37C395.098 390.195 404.66 386.607 417.902 386.607H418.339C440.906 386.607 452.194 402.441 452.194 434.103C452.194 435.562 452.156 437.078 452.106 438.653V494.982H441.781V441.012C441.835 439.207 441.873 437.462 441.873 435.766C441.873 410.982 434.344 397.774 419.302 396.141H417.723C401.689 396.141 392.123 404.716 389.035 421.857V494.982Z" fill="#FABCB5"/>
<path d="M466.43 456.233C467.542 474.487 476.896 483.616 494.513 483.616H520.226V453.345C517.309 436.204 507.834 427.633 491.796 427.633C474.83 428.099 466.342 436.579 466.342 453.087C466.342 454.133 466.371 455.187 466.43 456.233ZM530.546 494.983H495.471C469.988 494.983 456.838 482.329 456.021 457.02V454.574C456.021 430.374 467.888 418.27 491.626 418.27C504.859 418.27 514.426 421.858 520.313 429.033L520.226 421.945C518.009 404.333 508.621 395.295 492.059 394.829C486.926 394.887 482.526 396.17 478.851 398.674L470.367 392.029C476.08 387.712 483.338 385.524 492.146 385.47C514.367 385.995 527.163 397.37 530.546 419.583V494.983Z" fill="#FABCB5"/>
<path d="M601.798 494.896V494.983H591.74V353.108H601.798V484.833H659.44V494.896H601.798Z" fill="#FABCB5"/>
<path d="M681.373 495.247H670.786V387.835H681.373V495.247ZM682.727 345.235C684.444 347.043 685.306 349.201 685.306 351.706C685.306 354.218 684.444 356.356 682.727 358.135C681.01 359.914 678.835 360.806 676.215 360.806C673.585 360.806 671.373 359.914 669.565 358.135C667.756 356.356 666.852 354.218 666.852 351.706C666.852 349.201 667.756 347.043 669.565 345.235C671.373 343.426 673.585 342.526 676.215 342.526C678.835 342.526 681.01 343.426 682.727 345.235Z" fill="#FABCB5"/>
<path d="M706.198 456.233C707.31 474.487 716.665 483.616 734.281 483.616H759.994V453.345C757.077 436.204 747.602 427.633 731.565 427.633C714.598 428.099 706.11 436.579 706.11 453.087C706.11 454.133 706.14 455.187 706.198 456.233ZM770.315 494.983H735.24C709.756 494.983 696.606 482.329 695.79 457.02V454.574C695.79 430.374 707.656 418.27 731.394 418.27C744.627 418.27 754.194 421.858 760.081 429.033L759.994 421.945C757.777 404.333 748.39 395.295 731.827 394.829C726.694 394.887 722.294 396.17 718.619 398.674L710.135 392.029C715.848 387.712 723.106 385.524 731.915 385.47C754.135 385.995 766.931 397.37 770.315 419.583V494.983Z" fill="#FABCB5"/>
<path d="M858.447 420.984C883.635 420.984 896.235 411.421 896.235 392.296C896.235 372.988 883.201 363.338 857.135 363.338H842.085V420.984H858.447ZM899.555 494.984L866.235 431.217C863.435 431.45 860.46 431.563 857.305 431.563H842.085V494.984H831.505V353.104H858.005C890.493 353.104 906.73 366.167 906.73 392.296C906.73 412.704 896.755 425.155 876.814 429.646L910.93 494.984H899.555Z" fill="#FABCB5"/>
<path d="M980.798 439.965C979.398 409.99 969.252 395.003 950.356 395.003C931.468 395.003 921.198 409.99 919.568 439.965C920.268 471.165 930.531 486.761 950.356 486.761C970.064 486.761 980.214 471.165 980.798 439.965ZM950.356 383.719C975.552 383.719 989.285 402.299 991.56 439.44C990.623 477.928 976.893 497.169 950.356 497.169C923.593 497.169 909.86 477.928 909.16 439.44C911.318 402.299 925.052 383.719 950.356 383.719Z" fill="#FABCB5"/>
<path d="M1028.71 397.016C1019.26 397.016 1012.06 403.02 1007.11 415.036C1003.96 422.674 1002.38 431.599 1002.38 441.799C1002.38 447.636 1002.91 453.874 1003.96 460.52C1006.69 478.361 1016.46 487.286 1033.26 487.286H1034.75C1054.57 485.016 1064.78 472.124 1065.36 448.624L1076.11 448.711C1075.3 479.328 1061.04 495.424 1033.35 496.995C1032.35 497.053 1031.39 497.082 1030.46 497.082C1011.1 497.082 999.056 487.549 994.331 468.482C992.172 459.674 991.097 451.161 991.097 442.941C991.097 432.445 992.872 422.382 996.431 412.761C1002.73 395.674 1014.36 387.136 1031.33 387.136H1033.52C1046.81 387.136 1056.9 392.528 1063.78 403.316L1056.7 409.878C1051.21 401.42 1043.37 397.074 1033.17 396.841C1031.71 396.841 1030.22 396.899 1028.71 397.016Z" fill="#FABCB5"/>
<path d="M1095.26 494.982H1084.85V352.932H1095.43V397.37C1101.32 390.195 1110.88 386.607 1124.12 386.607C1146.34 386.607 1157.45 400.899 1157.45 429.47V494.982H1147.13V431.22C1147.13 407.832 1139.93 396.141 1125.52 396.141H1123.95C1107.91 396.141 1098.35 404.716 1095.26 421.857V494.982Z" fill="#FABCB5"/>
<path d="M1177.46 456.233C1178.57 474.487 1187.93 483.616 1205.54 483.616H1231.26V453.345C1228.34 436.204 1218.86 427.633 1202.83 427.633C1185.86 428.099 1177.37 436.579 1177.37 453.087C1177.37 454.133 1177.4 455.187 1177.46 456.233ZM1241.58 494.983H1206.5C1181.02 494.983 1167.87 482.329 1167.05 457.02V454.574C1167.05 430.374 1178.92 418.27 1202.66 418.27C1215.89 418.27 1225.46 421.858 1231.34 429.033L1231.26 421.945C1229.04 404.333 1219.65 395.295 1203.09 394.829C1197.96 394.887 1193.56 396.17 1189.88 398.674L1181.4 392.029C1187.11 387.712 1194.37 385.524 1203.18 385.47C1225.4 385.995 1238.19 397.37 1241.58 419.583V494.983Z" fill="#FABCB5"/>
<path d="M8.06082 560.416H18.1233C21.2817 560.416 23.6525 559.616 25.2358 558.007C26.815 556.399 27.6066 554.374 27.6066 551.932C27.6066 549.474 26.815 547.432 25.2358 545.807C23.6525 544.187 21.2817 543.374 18.1233 543.374H8.06082V560.416ZM8.06082 563.103V579.041H4.89832V540.687H18.1233C22.1442 540.687 25.2567 541.712 27.4608 543.766C29.665 545.824 30.765 548.528 30.765 551.882C30.765 555.287 29.665 558.012 27.4608 560.049C25.2567 562.082 22.1442 563.103 18.1233 563.103H8.06082Z" fill="#5A6061"/>
<path d="M47.6258 552.698C45.2008 552.698 43.2091 553.565 41.6466 555.307C40.0841 557.044 39.1716 559.248 38.9091 561.919L38.9841 562.077H55.3175V561.415C55.3175 558.89 54.655 556.802 53.33 555.161C52.0008 553.519 50.105 552.698 47.6258 552.698ZM47.9175 579.59C44.2258 579.59 41.2341 578.29 38.9341 575.682C36.6341 573.073 35.4841 569.723 35.4841 565.632V564.182C35.4841 560.073 36.6466 556.686 38.9716 554.011C41.3008 551.344 44.1841 550.011 47.6258 550.011C51.0841 550.011 53.7591 551.119 55.6466 553.34C57.5341 555.565 58.48 558.557 58.48 562.311V564.765H38.6425V565.632C38.6425 568.882 39.4633 571.573 41.1091 573.719C42.7466 575.861 45.0175 576.932 47.9175 576.932C49.655 576.932 51.255 576.644 52.7091 576.073C54.1675 575.502 55.38 574.74 56.3466 573.769L57.6883 575.932C56.6883 576.986 55.3758 577.857 53.7508 578.552C52.1258 579.244 50.18 579.59 47.9175 579.59Z" fill="#5A6061"/>
<path d="M66.7766 565.58C66.7766 569.022 67.4683 571.759 68.8433 573.797C70.2225 575.834 72.2975 576.855 75.0725 576.855C77.11 576.855 78.8058 576.401 80.16 575.497C81.51 574.592 82.5641 573.342 83.3183 571.742V558.23C82.5975 556.613 81.5808 555.297 80.2641 554.276C78.9475 553.259 77.235 552.751 75.1266 552.751C72.3516 552.751 70.2683 553.888 68.8725 556.163C67.4766 558.438 66.7766 561.392 66.7766 565.026V565.58ZM63.6141 565.026C63.6141 560.476 64.5766 556.838 66.5016 554.105C68.4225 551.376 71.1058 550.013 74.5475 550.013C76.4975 550.013 78.2058 550.422 79.6725 551.251C81.135 552.076 82.3516 553.242 83.3183 554.755V537.947H86.4808V579.038H83.8975L83.4516 574.905C82.485 576.413 81.2558 577.572 79.7641 578.38C78.2683 579.188 76.5141 579.592 74.4933 579.592C71.085 579.592 68.4225 578.326 66.5016 575.784C64.5766 573.251 63.6141 569.847 63.6141 565.58V565.026Z" fill="#5A6061"/>
<path d="M98.4146 579.039H95.2814V550.539H98.4146V579.039ZM98.4146 542.372H95.2814V537.947H98.4146V542.372Z" fill="#5A6061"/>
<path d="M114.691 576.8C117.116 576.8 119.212 576.225 120.987 575.075C122.762 573.925 123.962 572.446 124.596 570.637V565.183H117.562C115 565.183 112.883 565.791 111.212 567.012C109.546 568.233 108.712 569.704 108.712 571.425C108.712 573.041 109.241 574.341 110.304 575.325C111.366 576.308 112.829 576.8 114.691 576.8ZM125.175 579.037C124.983 578.037 124.837 577.179 124.741 576.458C124.646 575.737 124.596 575 124.596 574.241C123.612 575.787 122.233 577.066 120.462 578.079C118.687 579.087 116.65 579.591 114.35 579.591C111.558 579.591 109.391 578.85 107.854 577.366C106.321 575.883 105.55 573.866 105.55 571.321C105.55 568.775 106.666 566.708 108.896 565.133C111.125 563.55 114.025 562.758 117.591 562.758H124.596V559.229C124.596 557.196 123.95 555.596 122.658 554.433C121.371 553.275 119.546 552.7 117.196 552.7C115.033 552.7 113.291 553.225 111.966 554.275C110.641 555.329 109.979 556.654 109.979 558.254H107.05L107 558.096C106.896 555.954 107.812 554.071 109.754 552.446C111.691 550.825 114.225 550.012 117.35 550.012C120.475 550.012 122.987 550.808 124.887 552.408C126.783 554.004 127.729 556.3 127.729 559.283V573.296C127.729 574.296 127.787 575.271 127.9 576.221C128.016 577.166 128.204 578.108 128.471 579.037H125.175Z" fill="#5A6061"/>
<path d="M141.059 543.24V550.54H147.33V553.115H141.059V571.69C141.059 573.549 141.396 574.869 142.075 575.657C142.75 576.436 143.646 576.824 144.771 576.824C145.159 576.824 145.534 576.803 145.892 576.761C146.25 576.715 146.68 576.64 147.171 576.536L147.642 578.882C147.221 579.094 146.7 579.261 146.075 579.394C145.455 579.528 144.834 579.59 144.221 579.59C142.217 579.59 140.659 578.961 139.542 577.694C138.43 576.432 137.871 574.432 137.871 571.69V553.115H132.946V550.54H137.871V543.24H141.059Z" fill="#5A6061"/>
<path d="M166.506 553.251L164.268 553.092C162.281 553.092 160.656 553.651 159.381 554.763C158.106 555.88 157.197 557.409 156.656 559.359V579.038H153.493V550.538H156.26L156.656 555.28V555.592C157.481 553.838 158.585 552.472 159.972 551.484C161.36 550.501 163.01 550.013 164.922 550.013C165.31 550.013 165.681 550.038 166.031 550.101C166.385 550.163 166.672 550.23 166.897 550.301L166.506 553.251Z" fill="#5A6061"/>
<path d="M179.465 576.8C181.89 576.8 183.986 576.225 185.761 575.075C187.536 573.925 188.736 572.446 189.369 570.637V565.183H182.336C179.773 565.183 177.657 565.791 175.986 567.012C174.319 568.233 173.486 569.704 173.486 571.425C173.486 573.041 174.015 574.341 175.077 575.325C176.14 576.308 177.602 576.8 179.465 576.8ZM189.948 579.037C189.757 578.037 189.611 577.179 189.515 576.458C189.419 575.737 189.369 575 189.369 574.241C188.386 575.787 187.007 577.066 185.236 578.079C183.461 579.087 181.423 579.591 179.123 579.591C176.332 579.591 174.165 578.85 172.627 577.366C171.094 575.883 170.323 573.866 170.323 571.321C170.323 568.775 171.44 566.708 173.669 565.133C175.898 563.55 178.798 562.758 182.365 562.758H189.369V559.229C189.369 557.196 188.723 555.596 187.432 554.433C186.144 553.275 184.319 552.7 181.969 552.7C179.807 552.7 178.065 553.225 176.74 554.275C175.415 555.329 174.752 556.654 174.752 558.254H171.827L171.773 558.096C171.669 555.954 172.586 554.071 174.527 552.446C176.465 550.825 178.998 550.012 182.123 550.012C185.248 550.012 187.761 550.808 189.661 552.408C191.557 554.004 192.502 556.3 192.502 559.283V573.296C192.502 574.296 192.561 575.271 192.673 576.221C192.79 577.166 192.977 578.108 193.244 579.037H189.948Z" fill="#5A6061"/>
<path d="M224.561 552.698C222.136 552.698 220.144 553.565 218.581 555.307C217.019 557.044 216.106 559.248 215.844 561.919L215.919 562.077H232.252V561.415C232.252 558.89 231.59 556.802 230.265 555.161C228.936 553.519 227.04 552.698 224.561 552.698ZM224.852 579.59C221.161 579.59 218.169 578.29 215.869 575.682C213.569 573.073 212.419 569.723 212.419 565.632V564.182C212.419 560.073 213.581 556.686 215.906 554.011C218.236 551.344 221.119 550.011 224.561 550.011C228.019 550.011 230.694 551.119 232.581 553.34C234.469 555.565 235.415 558.557 235.415 562.311V564.765H215.577V565.632C215.577 568.882 216.398 571.573 218.044 573.719C219.686 575.861 221.952 576.932 224.852 576.932C226.59 576.932 228.19 576.644 229.644 576.073C231.102 575.502 232.315 574.74 233.281 573.769L234.623 575.932C233.623 576.986 232.311 577.857 230.686 578.552C229.061 579.244 227.115 579.59 224.852 579.59Z" fill="#5A6061"/>
<path d="M283.909 579.039H280.746L258.963 546.214L258.805 546.243V579.039H255.642V540.689H258.805L280.588 573.426L280.746 573.401V540.689H283.909V579.039Z" fill="#5A6061"/>
<path d="M303.506 552.698C301.081 552.698 299.089 553.565 297.527 555.307C295.964 557.044 295.052 559.248 294.789 561.919L294.864 562.077H311.198V561.415C311.198 558.89 310.535 556.802 309.21 555.161C307.881 553.519 305.985 552.698 303.506 552.698ZM303.798 579.59C300.106 579.59 297.114 578.29 294.814 575.682C292.514 573.073 291.364 569.723 291.364 565.632V564.182C291.364 560.073 292.527 556.686 294.852 554.011C297.181 551.344 300.064 550.011 303.506 550.011C306.964 550.011 309.639 551.119 311.527 553.34C313.414 555.565 314.36 558.557 314.36 562.311V564.765H294.523V565.632C294.523 568.882 295.343 571.573 296.989 573.719C298.627 575.861 300.898 576.932 303.798 576.932C305.535 576.932 307.135 576.644 308.589 576.073C310.048 575.502 311.26 574.74 312.227 573.769L313.568 575.932C312.568 576.986 311.256 577.857 309.631 578.552C308.006 579.244 306.06 579.59 303.798 579.59Z" fill="#5A6061"/>
<path d="M322.131 565.237C322.131 568.537 322.964 571.312 324.635 573.562C326.302 575.808 328.627 576.928 331.614 576.928C334.548 576.928 336.852 575.808 338.527 573.562C340.206 571.312 341.043 568.537 341.043 565.237V564.366C341.043 561.12 340.202 558.362 338.514 556.095C336.831 553.828 334.51 552.699 331.56 552.699C328.61 552.699 326.302 553.828 324.635 556.095C322.964 558.362 322.131 561.12 322.131 564.366V565.237ZM318.973 564.366C318.973 560.17 320.118 556.728 322.423 554.041C324.723 551.353 327.768 550.012 331.56 550.012C335.373 550.012 338.427 551.353 340.731 554.041C343.031 556.728 344.181 560.17 344.181 564.366V565.237C344.181 569.449 343.031 572.895 340.743 575.574C338.452 578.253 335.406 579.591 331.614 579.591C327.785 579.591 324.723 578.253 322.423 575.574C320.118 572.895 318.973 569.449 318.973 565.237V564.366Z" fill="#5A6061"/>
<path d="M353.554 550.538L353.846 555.488C354.775 553.751 356.013 552.401 357.559 551.447C359.104 550.488 360.938 550.009 363.063 550.009C366.154 550.009 368.509 550.955 370.121 552.843C371.738 554.73 372.546 557.676 372.546 561.68V579.038H369.388V561.705C369.388 558.438 368.775 556.134 367.554 554.78C366.334 553.426 364.6 552.747 362.354 552.747C360.104 552.747 358.292 553.305 356.913 554.409C355.534 555.513 354.538 557.001 353.925 558.863V579.038H350.763V550.538H353.554Z" fill="#5A6061"/>
<path d="M388.353 576.8C390.778 576.8 392.873 576.225 394.648 575.075C396.423 573.925 397.623 572.446 398.257 570.637V565.183H391.223C388.661 565.183 386.544 565.791 384.873 567.012C383.207 568.233 382.373 569.704 382.373 571.425C382.373 573.041 382.903 574.341 383.965 575.325C385.028 576.308 386.49 576.8 388.353 576.8ZM398.836 579.037C398.644 578.037 398.498 577.179 398.403 576.458C398.307 575.737 398.257 575 398.257 574.241C397.273 575.787 395.894 577.066 394.123 578.079C392.348 579.087 390.311 579.591 388.011 579.591C385.219 579.591 383.053 578.85 381.515 577.366C379.982 575.883 379.211 573.866 379.211 571.321C379.211 568.775 380.328 566.708 382.557 565.133C384.786 563.55 387.686 562.758 391.253 562.758H398.257V559.229C398.257 557.196 397.611 555.596 396.319 554.433C395.032 553.275 393.207 552.7 390.857 552.7C388.694 552.7 386.953 553.225 385.628 554.275C384.303 555.329 383.64 556.654 383.64 558.254H380.715L380.661 558.096C380.557 555.954 381.473 554.071 383.415 552.446C385.353 550.825 387.886 550.012 391.011 550.012C394.136 550.012 396.648 550.808 398.548 552.408C400.444 554.004 401.39 556.3 401.39 559.283V573.296C401.39 574.296 401.448 575.271 401.561 576.221C401.678 577.166 401.865 578.108 402.132 579.037H398.836Z" fill="#5A6061"/>
<path d="M414.72 543.24V550.54H420.991V553.115H414.72V571.69C414.72 573.549 415.058 574.869 415.737 575.657C416.412 576.436 417.308 576.824 418.433 576.824C418.82 576.824 419.195 576.803 419.554 576.761C419.912 576.715 420.341 576.64 420.833 576.536L421.304 578.882C420.883 579.094 420.362 579.261 419.737 579.394C419.116 579.528 418.495 579.59 417.883 579.59C415.879 579.59 414.32 578.961 413.204 577.694C412.091 576.432 411.533 574.432 411.533 571.69V553.115H406.608V550.54H411.533V543.24H414.72Z" fill="#5A6061"/>
<path d="M428.55 565.237C428.55 568.537 429.383 571.312 431.054 573.562C432.721 575.808 435.046 576.928 438.033 576.928C440.967 576.928 443.271 575.808 444.946 573.562C446.625 571.312 447.462 568.537 447.462 565.237V564.366C447.462 561.12 446.621 558.362 444.933 556.095C443.25 553.828 440.933 552.699 437.979 552.699C435.029 552.699 432.721 553.828 431.054 556.095C429.383 558.362 428.55 561.12 428.55 564.366V565.237ZM425.392 564.366C425.392 560.17 426.537 556.728 428.842 554.041C431.142 551.353 434.187 550.012 437.979 550.012C441.792 550.012 444.846 551.353 447.15 554.041C449.45 556.728 450.6 560.17 450.6 564.366V565.237C450.6 569.449 449.454 572.895 447.162 575.574C444.871 578.253 441.825 579.591 438.033 579.591C434.204 579.591 431.142 578.253 428.842 575.574C426.537 572.895 425.392 569.449 425.392 565.237V564.366Z" fill="#5A6061"/>
<path d="M457.581 537.947H460.714V579.039H457.581V537.947Z" fill="#5A6061"/>
<path d="M470.827 565.237C470.827 568.537 471.661 571.312 473.331 573.562C474.998 575.808 477.323 576.928 480.311 576.928C483.244 576.928 485.548 575.808 487.223 573.562C488.902 571.312 489.74 568.537 489.74 565.237V564.366C489.74 561.12 488.898 558.362 487.211 556.095C485.527 553.828 483.206 552.699 480.256 552.699C477.306 552.699 474.998 553.828 473.331 556.095C471.661 558.362 470.827 561.12 470.827 564.366V565.237ZM467.669 564.366C467.669 560.17 468.815 556.728 471.119 554.041C473.419 551.353 476.465 550.012 480.256 550.012C484.069 550.012 487.123 551.353 489.427 554.041C491.727 556.728 492.877 560.17 492.877 564.366V565.237C492.877 569.449 491.727 572.895 489.44 575.574C487.148 578.253 484.102 579.591 480.311 579.591C476.481 579.591 473.419 578.253 471.119 575.574C468.815 572.895 467.669 569.449 467.669 565.237V564.366Z" fill="#5A6061"/>
<path d="M501.489 565.58C501.489 569.022 502.181 571.759 503.572 573.797C504.956 575.834 507.039 576.855 509.814 576.855C511.814 576.855 513.497 576.401 514.86 575.497C516.218 574.592 517.276 573.347 518.031 571.772V558.176C517.31 556.58 516.289 555.272 514.964 554.267C513.639 553.255 511.939 552.751 509.864 552.751C507.093 552.751 505.001 553.892 503.597 556.176C502.193 558.459 501.489 561.409 501.489 565.026V565.58ZM498.331 565.026C498.331 560.476 499.289 556.838 501.214 554.105C503.135 551.376 505.818 550.013 509.26 550.013C511.281 550.013 513.035 550.447 514.531 551.317C516.022 552.184 517.251 553.417 518.218 555.017L518.664 550.538H521.218V579.197C521.218 582.83 520.218 585.634 518.218 587.601C516.214 589.567 513.376 590.551 509.71 590.551C508.339 590.551 506.876 590.384 505.322 590.051C503.768 589.717 502.41 589.259 501.251 588.68L501.86 586.022C503.001 586.584 504.214 587.009 505.506 587.297C506.797 587.588 508.181 587.73 509.656 587.73C512.464 587.73 514.564 587.013 515.951 585.572C517.339 584.13 518.031 582.009 518.031 579.197V575.167C517.068 576.592 515.839 577.68 514.36 578.447C512.872 579.209 511.156 579.592 509.21 579.592C505.801 579.592 503.135 578.322 501.214 575.776C499.289 573.226 498.331 569.83 498.331 565.58V565.026Z" fill="#5A6061"/>
<path d="M533.023 579.039H529.89V550.539H533.023V579.039ZM533.023 542.372H529.89V537.947H533.023V542.372Z" fill="#5A6061"/>
<path d="M558.809 571.745C558.809 570.407 558.259 569.245 557.163 568.253C556.067 567.261 554.084 566.449 551.226 565.815C547.851 565.115 545.342 564.153 543.705 562.932C542.059 561.711 541.238 560.003 541.238 557.807C541.238 555.632 542.159 553.786 543.992 552.278C545.826 550.765 548.255 550.011 551.276 550.011C554.455 550.011 556.992 550.815 558.888 552.42C560.784 554.028 561.688 556.007 561.601 558.361L561.546 558.52H558.626C558.626 556.957 557.955 555.595 556.609 554.436C555.267 553.278 553.488 552.699 551.276 552.699C548.992 552.699 547.271 553.199 546.113 554.203C544.955 555.203 544.376 556.37 544.376 557.703C544.376 559.003 544.871 560.078 545.863 560.928C546.855 561.782 548.834 562.532 551.805 563.182C555.138 563.92 557.663 564.949 559.376 566.261C561.088 567.582 561.942 569.353 561.942 571.586C561.942 573.953 560.984 575.882 559.059 577.365C557.138 578.853 554.596 579.59 551.434 579.59C547.971 579.59 545.259 578.77 543.28 577.12C541.305 575.465 540.371 573.499 540.476 571.215L540.53 571.057H543.426C543.551 573.111 544.388 574.603 545.942 575.536C547.496 576.47 549.326 576.932 551.434 576.932C553.717 576.932 555.517 576.42 556.834 575.403C558.151 574.386 558.809 573.165 558.809 571.745Z" fill="#5A6061"/>
<path d="M574.139 543.24V550.54H580.41V553.115H574.139V571.69C574.139 573.549 574.477 574.869 575.156 575.657C575.831 576.436 576.727 576.824 577.852 576.824C578.239 576.824 578.614 576.803 578.973 576.761C579.331 576.715 579.76 576.64 580.252 576.536L580.723 578.882C580.302 579.094 579.781 579.261 579.156 579.394C578.535 579.528 577.914 579.59 577.302 579.59C575.298 579.59 573.739 578.961 572.623 577.694C571.51 576.432 570.952 574.432 570.952 571.69V553.115H566.027V550.54H570.952V543.24H574.139Z" fill="#5A6061"/>
<path d="M594.133 576.8C596.558 576.8 598.654 576.225 600.429 575.075C602.204 573.925 603.404 572.446 604.037 570.637V565.183H597.004C594.441 565.183 592.325 565.791 590.654 567.012C588.987 568.233 588.154 569.704 588.154 571.425C588.154 573.041 588.683 574.341 589.745 575.325C590.808 576.308 592.27 576.8 594.133 576.8ZM604.616 579.037C604.425 578.037 604.279 577.179 604.183 576.458C604.087 575.737 604.037 575 604.037 574.241C603.054 575.787 601.675 577.066 599.904 578.079C598.129 579.087 596.091 579.591 593.791 579.591C591 579.591 588.833 578.85 587.295 577.366C585.762 575.883 584.991 573.866 584.991 571.321C584.991 568.775 586.108 566.708 588.337 565.133C590.566 563.55 593.466 562.758 597.033 562.758H604.037V559.229C604.037 557.196 603.391 555.596 602.1 554.433C600.812 553.275 598.987 552.7 596.637 552.7C594.475 552.7 592.733 553.225 591.408 554.275C590.083 555.329 589.42 556.654 589.42 558.254H586.495L586.441 558.096C586.337 555.954 587.254 554.071 589.195 552.446C591.133 550.825 593.666 550.012 596.791 550.012C599.916 550.012 602.429 550.808 604.329 552.408C606.225 554.004 607.17 556.3 607.17 559.283V573.296C607.17 574.296 607.229 575.271 607.341 576.221C607.458 577.166 607.645 578.108 607.912 579.037H604.616Z" fill="#5A6061"/>
<path d="M628.852 540.689H632.01V586.151H628.852V540.689Z" fill="#5A6061"/>
<path d="M680.876 567.053L680.926 567.211C680.997 570.97 679.768 573.974 677.239 576.224C674.714 578.47 671.393 579.591 667.285 579.591C663.014 579.591 659.572 578.049 656.96 574.97C654.339 571.891 653.035 567.899 653.035 562.999V556.753C653.035 551.87 654.339 547.882 656.96 544.782C659.572 541.682 663.014 540.132 667.285 540.132C671.443 540.132 674.776 541.228 677.281 543.424C679.781 545.62 680.997 548.641 680.926 552.486L680.876 552.645H677.926C677.926 549.553 676.981 547.145 675.093 545.416C673.206 543.686 670.601 542.82 667.285 542.82C663.931 542.82 661.239 544.12 659.21 546.72C657.185 549.32 656.168 552.645 656.168 556.703V562.999C656.168 567.107 657.185 570.453 659.21 573.049C661.239 575.636 663.931 576.928 667.285 576.928C670.601 576.928 673.206 576.086 675.093 574.403C676.981 572.716 677.926 570.266 677.926 567.053H680.876Z" fill="#5A6061"/>
<path d="M692.122 559.018H701.368C704.826 559.018 707.359 558.322 708.955 556.926C710.555 555.531 711.351 553.643 711.351 551.276C711.351 548.747 710.559 546.801 708.968 545.439C707.38 544.076 704.968 543.397 701.738 543.397H692.122V559.018ZM692.122 561.706V579.039H688.963V540.714H701.738C705.847 540.714 708.997 541.61 711.193 543.414C713.388 545.214 714.488 547.843 714.488 551.301C714.488 553.339 713.901 555.16 712.734 556.768C711.563 558.376 709.909 559.547 707.768 560.285C710.138 560.881 711.847 561.947 712.893 563.485C713.938 565.018 714.459 566.947 714.459 569.268V572.876C714.459 574.068 714.601 575.139 714.88 576.089C715.163 577.039 715.626 577.81 716.276 578.406V579.039H713.063C712.413 578.406 711.959 577.518 711.697 576.376C711.43 575.235 711.297 574.051 711.297 572.822V569.318C711.297 566.968 710.538 565.11 709.018 563.747C707.501 562.389 705.384 561.706 702.659 561.706H692.122Z" fill="#5A6061"/>
<path d="M742.672 574.456H742.827L757.106 540.685H760.952V579.039H757.793V546.823L757.635 546.798L743.881 579.039H741.618L727.552 546.006L727.393 546.031V579.039H724.235V540.685H728.447L742.672 574.456Z" fill="#5A6061"/>
<path d="M796.329 579.039H793.17V543.398L784.079 544.506V541.977L796.329 540.131V579.039Z" fill="#5A6061"/>
<path d="M836.208 543.374C831.908 548.395 828.671 553.42 826.5 558.453C824.333 563.487 823.25 569.082 823.25 575.249V579.041H820.087V575.249C820.087 569.153 821.217 563.516 823.475 558.337C825.729 553.153 828.887 548.166 832.946 543.374H811.267V540.687H836.208V543.374Z" fill="#5A6061"/>
<path d="M844.402 566.685H858.286V544.822L858.123 544.768L856.781 547.639L844.402 566.685ZM861.419 566.685H867.423V569.347H861.419V579.039H858.286V569.347H840.661V567.556L857.965 540.689H861.419V566.685Z" fill="#5A6061"/>
<path d="M883.177 558.018C885.969 558.018 888.086 557.326 889.527 555.939C890.969 554.551 891.686 552.76 891.686 550.564C891.686 548.28 891.019 546.418 889.686 544.98C888.348 543.539 886.373 542.818 883.761 542.818C881.298 542.818 879.261 543.555 877.644 545.022C876.031 546.489 875.223 548.385 875.223 550.722H872.273L872.219 550.564C872.131 547.576 873.194 545.093 875.406 543.11C877.619 541.126 880.402 540.13 883.761 540.13C887.165 540.13 889.865 541.055 891.861 542.897C893.848 544.743 894.844 547.33 894.844 550.668C894.844 552.564 894.298 554.289 893.202 555.835C892.106 557.38 890.598 558.526 888.686 559.28C890.894 559.985 892.594 561.135 893.781 562.735C894.965 564.33 895.556 566.297 895.556 568.635C895.556 572.06 894.477 574.743 892.319 576.68C890.156 578.622 887.348 579.593 883.89 579.593C880.64 579.593 877.765 578.63 875.261 576.705C872.761 574.785 871.552 572.147 871.64 568.793L871.694 568.635H874.644C874.644 571.005 875.511 572.98 877.252 574.56C878.99 576.143 881.202 576.93 883.89 576.93C886.556 576.93 888.648 576.193 890.156 574.722C891.669 573.243 892.423 571.251 892.423 568.739C892.423 566.035 891.619 564.018 890.015 562.693C888.406 561.368 886.127 560.705 883.177 560.705H879.648V558.018H883.177Z" fill="#5A6061"/>
<path d="M913.075 558.018C915.866 558.018 917.983 557.326 919.425 555.939C920.866 554.551 921.583 552.76 921.583 550.564C921.583 548.28 920.916 546.418 919.583 544.98C918.245 543.539 916.27 542.818 913.658 542.818C911.195 542.818 909.158 543.555 907.541 545.022C905.929 546.489 905.12 548.385 905.12 550.722H902.17L902.116 550.564C902.029 547.576 903.091 545.093 905.304 543.11C907.516 541.126 910.3 540.13 913.658 540.13C917.062 540.13 919.762 541.055 921.758 542.897C923.745 544.743 924.741 547.33 924.741 550.668C924.741 552.564 924.195 554.289 923.1 555.835C922.004 557.38 920.495 558.526 918.583 559.28C920.791 559.985 922.491 561.135 923.679 562.735C924.862 564.33 925.454 566.297 925.454 568.635C925.454 572.06 924.375 574.743 922.216 576.68C920.054 578.622 917.245 579.593 913.787 579.593C910.537 579.593 907.662 578.63 905.158 576.705C902.658 574.785 901.45 572.147 901.537 568.793L901.591 568.635H904.541C904.541 571.005 905.408 572.98 907.15 574.56C908.887 576.143 911.1 576.93 913.787 576.93C916.454 576.93 918.545 576.193 920.054 574.722C921.566 573.243 922.32 571.251 922.32 568.739C922.32 566.035 921.516 564.018 919.912 562.693C918.304 561.368 916.025 560.705 913.075 560.705H909.545V558.018H913.075Z" fill="#5A6061"/>
<path d="M945.002 561.364H960.543V564.022H945.002V561.364Z" fill="#5A6061"/>
<path d="M985.33 559.018H994.576C998.034 559.018 1000.57 558.322 1002.16 556.926C1003.76 555.531 1004.56 553.643 1004.56 551.276C1004.56 548.747 1003.77 546.801 1002.18 545.439C1000.59 544.076 998.176 543.397 994.946 543.397H985.33V559.018ZM985.33 561.706V579.039H982.171V540.714H994.946C999.051 540.714 1002.2 541.61 1004.4 543.414C1006.6 545.214 1007.69 547.843 1007.69 551.301C1007.69 553.339 1007.11 555.16 1005.94 556.768C1004.77 558.376 1003.12 559.547 1000.98 560.285C1003.35 560.881 1005.05 561.947 1006.1 563.485C1007.15 565.018 1007.67 566.947 1007.67 569.268V572.876C1007.67 574.068 1007.81 575.139 1008.09 576.089C1008.37 577.039 1008.83 577.81 1009.48 578.406V579.039H1006.27C1005.62 578.406 1005.17 577.518 1004.9 576.376C1004.64 575.235 1004.5 574.051 1004.5 572.822V569.318C1004.5 566.968 1003.75 565.11 1002.23 563.747C1000.71 562.389 998.592 561.706 995.867 561.706H985.33Z" fill="#5A6061"/>
<path d="M1042.44 556.703C1042.44 552.557 1041.39 549.22 1039.29 546.695C1037.19 544.161 1034.28 542.899 1030.56 542.899C1026.91 542.899 1024.06 544.161 1022.03 546.695C1019.99 549.22 1018.97 552.557 1018.97 556.703V562.999C1018.97 567.174 1019.99 570.532 1022.04 573.057C1024.08 575.586 1026.93 576.853 1030.58 576.853C1034.32 576.853 1037.23 575.595 1039.32 573.074C1041.4 570.553 1042.44 567.195 1042.44 562.999V556.703ZM1045.57 562.999C1045.57 565.332 1045.25 567.482 1044.61 569.449C1043.97 571.42 1043.05 573.132 1041.86 574.586L1047.97 580.566L1045.78 582.674L1039.59 576.745C1038.36 577.678 1036.99 578.386 1035.47 578.87C1033.95 579.349 1032.32 579.591 1030.58 579.591C1026.09 579.591 1022.5 578.066 1019.83 575.007C1017.15 571.953 1015.81 567.949 1015.81 562.999V556.753C1015.81 551.82 1017.14 547.816 1019.81 544.741C1022.48 541.67 1026.06 540.132 1030.56 540.132C1035.13 540.132 1038.77 541.67 1041.49 544.741C1044.21 547.816 1045.57 551.82 1045.57 556.753V562.999Z" fill="#5A6061"/>
<path d="M1074.5 560.47H1057.3V576.378H1077.18V579.041H1054.13V540.687H1077.05V543.374H1057.3V557.782H1074.5V560.47Z" fill="#5A6061"/>
<path d="M1109.45 579.039H1106.29V543.398L1097.2 544.506V541.977L1109.45 540.131V579.039Z" fill="#5A6061"/>
<path d="M1145.7 553.724C1145.7 550.37 1144.94 547.716 1143.42 545.757C1141.9 543.799 1139.74 542.82 1136.93 542.82C1134.12 542.82 1131.95 543.803 1130.43 545.77C1128.91 547.736 1128.15 550.386 1128.15 553.724V565.974C1128.15 569.291 1128.92 571.949 1130.46 573.945C1132 575.936 1134.17 576.928 1136.98 576.928C1139.77 576.928 1141.92 575.941 1143.43 573.953C1144.95 571.97 1145.7 569.311 1145.7 565.974V553.724ZM1148.86 565.499C1148.86 569.874 1147.8 573.316 1145.69 575.824C1143.57 578.341 1140.67 579.591 1136.98 579.591C1133.29 579.591 1130.38 578.332 1128.24 575.811C1126.09 573.295 1125.02 569.857 1125.02 565.499V554.224C1125.02 549.891 1126.08 546.453 1128.21 543.928C1130.33 541.399 1133.24 540.132 1136.93 540.132C1140.62 540.132 1143.52 541.399 1145.66 543.928C1147.8 546.453 1148.86 549.891 1148.86 554.224V565.499Z" fill="#5A6061"/>
<path d="M1166.4 558.018C1169.19 558.018 1171.31 557.326 1172.75 555.939C1174.19 554.551 1174.91 552.76 1174.91 550.564C1174.91 548.28 1174.24 546.418 1172.91 544.98C1171.57 543.539 1169.6 542.818 1166.99 542.818C1164.52 542.818 1162.49 543.555 1160.87 545.022C1159.26 546.489 1158.45 548.385 1158.45 550.722H1155.5L1155.44 550.564C1155.36 547.576 1156.42 545.093 1158.63 543.11C1160.84 541.126 1163.63 540.13 1166.99 540.13C1170.39 540.13 1173.09 541.055 1175.09 542.897C1177.07 544.743 1178.07 547.33 1178.07 550.668C1178.07 552.564 1177.52 554.289 1176.43 555.835C1175.33 557.38 1173.82 558.526 1171.91 559.28C1174.12 559.985 1175.82 561.135 1177.01 562.735C1178.19 564.33 1178.78 566.297 1178.78 568.635C1178.78 572.06 1177.7 574.743 1175.54 576.68C1173.38 578.622 1170.57 579.593 1167.12 579.593C1163.87 579.593 1160.99 578.63 1158.49 576.705C1155.99 574.785 1154.78 572.147 1154.87 568.793L1154.92 568.635H1157.87C1157.87 571.005 1158.74 572.98 1160.48 574.56C1162.22 576.143 1164.43 576.93 1167.12 576.93C1169.78 576.93 1171.87 576.193 1173.38 574.722C1174.89 573.243 1175.65 571.251 1175.65 568.739C1175.65 566.035 1174.84 564.018 1173.24 562.693C1171.63 561.368 1169.35 560.705 1166.4 560.705H1162.87V558.018H1166.4Z" fill="#5A6061"/>
<path d="M1195.77 562.973C1198 562.973 1199.88 562.41 1201.41 561.285C1202.94 560.164 1204.02 558.773 1204.64 557.123V553.46C1204.64 550.056 1203.86 547.431 1202.28 545.585C1200.69 543.743 1198.58 542.818 1195.93 542.818C1193.45 542.818 1191.43 543.81 1189.87 545.798C1188.3 547.781 1187.52 550.231 1187.52 553.148C1187.52 555.956 1188.26 558.298 1189.72 560.168C1191.19 562.039 1193.21 562.973 1195.77 562.973ZM1195.43 576.931C1198.24 576.931 1200.47 576.002 1202.14 574.139C1203.81 572.281 1204.64 569.677 1204.64 566.343V560.76C1203.72 562.323 1202.47 563.527 1200.92 564.368C1199.37 565.21 1197.65 565.631 1195.77 565.631C1192.29 565.631 1189.5 564.477 1187.41 562.168C1185.31 559.86 1184.26 556.852 1184.26 553.148C1184.26 549.406 1185.36 546.302 1187.55 543.831C1189.74 541.364 1192.49 540.131 1195.8 540.131C1199.42 540.131 1202.34 541.318 1204.57 543.689C1206.8 546.06 1207.92 549.431 1207.92 553.802V566.293C1207.92 570.452 1206.76 573.71 1204.45 576.064C1202.14 578.414 1199.13 579.593 1195.43 579.593C1194.11 579.593 1192.78 579.452 1191.44 579.168C1190.09 578.889 1188.79 578.477 1187.52 577.935L1188.11 575.377C1189.27 575.939 1190.4 576.339 1191.52 576.577C1192.63 576.814 1193.94 576.931 1195.43 576.931Z" fill="#5A6061"/>
<path d="M1227.64 557.36C1225.57 557.36 1223.74 557.914 1222.15 559.031C1220.56 560.148 1219.48 561.569 1218.9 563.285V565.285C1218.9 568.819 1219.72 571.644 1221.37 573.76C1223.02 575.877 1225.12 576.931 1227.67 576.931C1230.27 576.931 1232.33 576.002 1233.85 574.139C1235.37 572.277 1236.13 569.923 1236.13 567.077C1236.13 563.989 1235.41 561.598 1233.98 559.902C1232.55 558.21 1230.43 557.36 1227.64 557.36ZM1228.17 540.131C1229.59 540.131 1231.01 540.281 1232.43 540.577C1233.84 540.877 1235.06 541.306 1236.1 541.873L1235.28 544.452C1234.23 543.91 1233.16 543.502 1232.06 543.231C1230.96 542.956 1229.66 542.819 1228.17 542.819C1225.48 542.819 1223.27 543.889 1221.52 546.031C1219.77 548.177 1218.9 550.956 1218.9 554.385V559.648C1219.95 558.177 1221.31 556.994 1222.98 556.106C1224.65 555.223 1226.49 554.777 1228.51 554.777C1231.9 554.777 1234.54 555.885 1236.44 558.098C1238.34 560.31 1239.28 563.306 1239.28 567.077C1239.28 570.819 1238.22 573.844 1236.08 576.144C1233.95 578.444 1231.15 579.589 1227.67 579.589C1224.23 579.589 1221.38 578.285 1219.13 575.664C1216.89 573.052 1215.76 569.51 1215.76 565.052V554.673C1215.76 550.423 1216.96 546.939 1219.33 544.214C1221.71 541.494 1224.66 540.131 1228.17 540.131Z" fill="#5A6061"/>
<g opacity="0.74">
<path d="M507.773 207.776C507.59 205.409 506.069 203.472 504.286 204.142C499.861 205.801 500.907 210.692 499.611 214.163C498.923 216.009 500.744 217.609 502.59 217.192C507.744 216.022 505.953 210.805 507.773 207.776ZM538.628 206.576C538.778 204.726 538.328 203.538 536.994 202.917C535.628 202.28 534.265 202.692 533.569 203.901C531.819 206.938 530.165 210.051 528.715 213.242C528.148 214.492 528.828 215.797 530.086 216.567C531.419 217.388 532.69 217.042 533.59 215.963C535.998 213.08 537.29 209.588 538.628 206.576ZM515.048 207.142C515.457 209.388 515.857 212.147 516.486 214.847C516.869 216.472 518.157 217.338 519.844 217.126C521.819 216.884 522.832 215.563 522.582 213.63C522.228 210.88 521.732 208.142 521.119 205.442C520.648 203.376 519.319 202.217 517.044 202.688C514.748 203.163 515.007 204.967 515.048 207.142ZM497.903 184.38C497.757 178.917 493.594 175.23 487.857 175.476C482.482 175.705 478.748 179.63 478.886 184.905C479.019 190.097 483.665 194.642 488.665 194.476C493.723 194.309 498.04 189.592 497.903 184.38ZM838.648 193.688C834.894 216.109 828.978 238.072 824.453 260.322C821.611 274.284 819.207 288.351 817.165 302.455C816.307 308.392 814.086 311.622 807.857 311.892C803.94 312.063 800.053 313.263 796.14 313.326C781.465 313.559 766.823 315.126 752.128 314.459C746.878 314.222 741.636 313.697 736.386 313.605C733.432 313.551 733.144 311.397 732.553 309.538C729.603 300.305 729.357 290.688 728.836 281.138C728.461 274.305 728.673 274.426 722.178 276.222C697.686 282.984 672.865 285.534 647.432 283.188C630.911 281.667 614.748 278.488 598.64 274.88C594.219 273.888 594.044 275.351 594.419 278.959C595.478 289.097 594.028 299.142 592.682 309.163C592.403 311.251 590.823 312.001 588.773 312.584C582.578 314.347 576.178 315.201 569.878 315.459C553.907 316.113 537.907 316.326 522.032 313.534C516.265 312.517 512.698 310.18 511.215 304.005C508.115 291.067 504.294 278.305 500.773 265.488C499.436 265.092 499.098 266.126 498.728 266.913C486.619 292.838 464.623 307.342 439.432 318.034C422.428 325.255 404.653 328.772 386.115 328.138C377.248 327.834 368.594 326.138 360.007 324.122C354.99 322.942 352.573 318.117 353.394 311.663C353.628 309.801 354.028 307.959 354.403 306.122C355.961 298.534 357.032 297.938 364.886 297.601C384.448 296.763 403.607 293.755 420.011 282.134C440.319 267.751 451.844 244.351 445.494 217.526C441.365 200.076 434.261 183.63 428.828 166.617C414.132 120.601 424.644 79.8674 454.353 43.1674C469.298 24.7049 488.136 11.8049 511.028 4.93407C521.028 1.93407 531.344 0.984077 541.598 0.42991C568.253 -1.01592 594.598 0.934074 619.99 10.1424C626.353 12.4507 632.569 15.0424 639.253 18.9007C631.036 20.9382 623.223 21.1424 615.953 23.9007C592.236 32.9049 575.065 49.4549 561.786 70.5257C560.907 71.9174 558.998 74.0049 561.678 75.2882C564.303 76.5424 564.565 73.6257 565.448 72.2257C577.932 52.4591 594.182 37.0716 616.148 28.2174C644.736 16.6841 684.344 27.6549 700.473 51.5507C708.294 63.1299 711.136 76.3716 712.807 89.8049C716.573 120.113 710.882 148.913 697.311 176.142C679.119 212.63 649.769 234.001 609.411 240.051C596.49 241.984 583.59 242.355 570.953 238.047C564.173 235.734 558.365 232.209 554.54 225.884C553.894 224.817 553.478 222.492 551.373 223.688C548.957 225.063 550.261 227.042 551.253 228.555C556.482 236.576 564.307 240.922 573.286 243.222C591.707 247.934 609.769 245.359 627.711 240.242C667.494 228.897 692.073 201.709 707.082 164.451C716.411 141.301 719.386 117.097 717.198 92.5091C715.561 74.1007 711.648 55.9757 697.498 41.5299C702.686 39.8591 707.453 41.6299 711.936 42.3132C725.636 44.4132 739.378 46.1841 752.869 49.8174C797.103 61.7257 831.944 100.742 838.715 145.855C840.544 158.055 840.782 170.18 840.686 182.401C839.136 186.005 839.507 189.959 838.648 193.688Z" fill="#5C738E"/>
</g>
<path d="M358.599 220.08C368.828 207.026 378.732 204.613 388.849 212.451C399.787 220.926 401.499 235.776 392.853 247.334C389.307 252.072 384.52 255.234 379.357 257.951C367.028 264.434 366.803 264.659 358.628 275.217C354.107 267.08 346.953 262.263 338.741 258.597C333.449 256.234 328.612 253.047 324.882 248.455C315.749 237.197 316.762 222.309 327.257 213.388C337.082 205.042 346.72 206.976 358.599 220.08Z" fill="#86CBB7"/>
<path d="M838.65 193.689C839.509 189.96 839.134 186.006 840.688 182.402C844.921 186.148 849.305 189.585 854.717 191.619C858.7 193.114 861.967 194.277 866.038 190.935C869.934 187.739 876.846 190.273 880.938 195.181C883.834 198.66 884.805 202.898 885.584 207.144C886.513 212.21 887.871 217.027 892.388 221.723C883.83 220.169 876.388 219.044 869.059 217.406C863.238 216.11 859.275 212.548 858.888 206.189C858.73 203.627 857.438 202.648 855.205 202.027C849.15 200.335 843.788 197.223 838.65 193.689Z" fill="#86CBB7"/>
<path d="M590.391 259.815C590.291 258.523 589.462 257.469 588.487 257.831C586.075 258.736 586.646 261.406 585.941 263.298C585.566 264.302 586.558 265.177 587.562 264.948C590.375 264.311 589.4 261.465 590.391 259.815ZM607.216 259.161C607.296 258.152 607.054 257.506 606.325 257.165C605.579 256.819 604.837 257.044 604.458 257.702C603.504 259.361 602.6 261.056 601.812 262.798C601.504 263.477 601.871 264.19 602.558 264.611C603.287 265.056 603.979 264.869 604.471 264.281C605.783 262.706 606.487 260.802 607.216 259.161ZM594.358 259.469C594.583 260.694 594.8 262.198 595.141 263.669C595.35 264.556 596.054 265.027 596.975 264.915C598.05 264.781 598.604 264.061 598.466 263.006C598.275 261.506 598.004 260.015 597.671 258.54C597.412 257.415 596.687 256.781 595.446 257.04C594.196 257.298 594.337 258.286 594.358 259.469ZM585.008 247.056C584.929 244.077 582.658 242.069 579.529 242.202C576.6 242.327 574.562 244.465 574.637 247.344C574.712 250.173 577.246 252.652 579.971 252.561C582.729 252.469 585.083 249.898 585.008 247.056ZM770.825 252.131C768.775 264.361 765.55 276.336 763.079 288.469C761.533 296.081 760.221 303.756 759.108 311.444C758.641 314.681 757.429 316.444 754.033 316.59C751.896 316.686 749.775 317.34 747.641 317.373C739.641 317.498 731.654 318.356 723.641 317.99C720.779 317.861 717.921 317.573 715.058 317.523C713.446 317.498 713.291 316.323 712.966 315.306C711.358 310.273 711.225 305.027 710.941 299.823C710.737 296.094 710.854 296.161 707.308 297.14C693.954 300.827 680.416 302.219 666.55 300.94C657.537 300.106 648.725 298.377 639.941 296.406C637.529 295.869 637.437 296.665 637.641 298.631C638.216 304.161 637.425 309.64 636.696 315.102C636.541 316.24 635.679 316.652 634.562 316.969C631.183 317.931 627.691 318.394 624.258 318.536C615.55 318.894 606.825 319.011 598.166 317.486C595.021 316.931 593.075 315.656 592.271 312.29C590.575 305.236 588.496 298.277 586.575 291.286C585.846 291.069 585.662 291.636 585.458 292.065C578.858 306.202 566.858 314.111 553.125 319.94C543.85 323.877 534.158 325.794 524.05 325.448C519.212 325.286 514.496 324.361 509.812 323.261C507.075 322.619 505.758 319.986 506.204 316.465C506.333 315.452 506.55 314.448 506.758 313.444C507.608 309.306 508.191 308.981 512.471 308.798C523.141 308.34 533.587 306.702 542.533 300.365C553.608 292.519 559.891 279.761 556.429 265.131C554.179 255.615 550.304 246.648 547.341 237.373C539.325 212.277 545.058 190.065 561.262 170.052C569.408 159.986 579.683 152.948 592.166 149.202C597.616 147.565 603.246 147.048 608.837 146.744C623.371 145.961 637.737 147.019 651.583 152.044C655.054 153.302 658.446 154.715 662.087 156.819C657.608 157.927 653.346 158.04 649.383 159.544C636.45 164.452 627.087 173.481 619.846 184.969C619.366 185.731 618.325 186.869 619.787 187.565C621.216 188.252 621.358 186.661 621.841 185.898C628.65 175.119 637.512 166.727 649.487 161.898C665.079 155.611 686.679 161.594 695.475 174.623C699.737 180.936 701.287 188.156 702.2 195.486C704.254 212.011 701.15 227.715 693.75 242.565C683.829 262.465 667.825 274.115 645.816 277.415C638.771 278.469 631.733 278.669 624.846 276.323C621.15 275.061 617.979 273.14 615.891 269.69C615.541 269.106 615.312 267.84 614.166 268.494C612.85 269.244 613.562 270.319 614.1 271.148C616.954 275.519 621.221 277.89 626.116 279.144C636.162 281.715 646.012 280.311 655.796 277.519C677.491 271.331 690.891 256.506 699.079 236.19C704.162 223.565 705.787 210.365 704.591 196.956C703.7 186.919 701.566 177.036 693.854 169.156C696.679 168.248 699.279 169.211 701.725 169.586C709.196 170.731 716.687 171.698 724.046 173.677C748.166 180.169 767.166 201.448 770.858 226.048C771.858 232.702 771.987 239.315 771.933 245.977C771.087 247.944 771.291 250.098 770.825 252.131Z" fill="#FABCB5"/>
<path d="M770.824 252.133C771.29 250.1 771.086 247.942 771.936 245.979C774.245 248.021 776.632 249.896 779.586 251.004C781.757 251.821 783.54 252.454 785.761 250.633C787.882 248.887 791.653 250.271 793.882 252.946C795.465 254.846 795.995 257.154 796.415 259.471C796.924 262.233 797.665 264.858 800.128 267.421C795.461 266.571 791.403 265.958 787.403 265.067C784.232 264.358 782.07 262.417 781.857 258.95C781.774 257.554 781.07 257.021 779.849 256.679C776.549 255.758 773.624 254.058 770.824 252.133Z" fill="#86CBB7"/>
<path d="M585.01 247.058C585.084 249.899 582.73 252.469 579.969 252.563C577.245 252.651 574.713 250.174 574.639 247.346C574.567 244.463 576.6 242.327 579.527 242.204C582.658 242.067 584.927 244.076 585.01 247.058Z" fill="#5F738D"/>
<path d="M595.143 263.67C594.798 262.199 594.581 260.695 594.36 259.47C594.335 258.283 594.193 257.299 595.448 257.041" fill="#5F738D"/>
<path d="M601.812 262.799C602.605 261.056 603.505 259.359 604.46 257.7Z" fill="#5F738D"/>
<path d="M590.392 259.816C589.401 261.464 590.375 264.31 587.561 264.947C586.557 265.178 585.565 264.303 585.943 263.298C586.648 261.407 586.074 258.735 588.488 257.829C589.461 257.47 590.291 258.524 590.392 259.816Z" fill="#5F738D"/>
<g opacity="0.74">
<path d="M585.01 247.058C585.085 249.899 582.73 252.469 579.969 252.563C577.246 252.651 574.713 250.174 574.639 247.346C574.568 244.463 576.601 242.327 579.528 242.204C582.658 242.067 584.928 244.076 585.01 247.058Z" fill="#5C738E"/>
<path d="M594.36 259.47C594.339 258.283 594.197 257.3 595.447 257.041C596.689 256.783 597.414 257.416 597.668 258.541C598.005 260.016 598.276 261.508 598.468 263.008C598.605 264.062 598.051 264.783 596.972 264.916C596.051 265.029 595.351 264.558 595.143 263.67C594.797 262.2 594.58 260.695 594.36 259.47Z" fill="#5C738E"/>
<path d="M607.217 259.16C606.488 260.806 605.783 262.71 604.471 264.281C603.979 264.868 603.288 265.056 602.558 264.61C601.871 264.189 601.504 263.477 601.813 262.797C602.6 261.056 603.504 259.36 604.458 257.702C604.838 257.043 605.579 256.818 606.325 257.164C607.054 257.506 607.296 258.152 607.217 259.16Z" fill="#5C738E"/>
<path d="M590.392 259.816C589.402 261.464 590.376 264.31 587.562 264.947C586.557 265.178 585.566 264.303 585.943 263.298C586.648 261.407 586.075 258.735 588.488 257.829C589.461 257.47 590.291 258.524 590.392 259.816Z" fill="#5C738E"/>
</g>
</svg>
